Coordinates
version=1
nRows=21
nColumns=12
inDegrees=yes

Units are S.I. units (second, meters, Newtons, ...)
Angles are in degrees

endheader
time	SC_y	SC_z	SC_x	AC_y	AC_z	AC_x	GH_y	GH_z	GH_yy	EL_x	PS_y
       0.0              -44.82          18.12          73.03          61.77        -0.1931         -12.58         -39.08         -4.437          111.3          133.2          18.59
   0.01772              -44.82          18.12          73.02          61.77        -0.1922         -12.58         -39.06         -4.427          111.2          133.2           18.6
   0.03545              -44.83          18.11          73.01          61.77        -0.1913         -12.57         -39.04         -4.418          111.2          133.2           18.6
   0.05317              -44.83          18.11           73.0          61.77        -0.1903         -12.57         -39.01         -4.407          111.2          133.1          18.61
   0.07089              -44.83          18.11          72.99          61.77        -0.1893         -12.57         -38.99         -4.396          111.1          133.1          18.62
   0.08861              -44.83          18.11          72.98          61.77        -0.1882         -12.56         -38.97         -4.384          111.1          133.1          18.62
    0.1063              -44.84           18.1          72.96          61.77         -0.187         -12.55         -38.94         -4.372          111.1          133.1          18.63
    0.1241              -44.84           18.1          72.95          61.77        -0.1857         -12.55         -38.91         -4.358          111.0          133.1          18.64
    0.1418              -44.84           18.1          72.94          61.78        -0.1843         -12.54         -38.88         -4.344          111.0          133.1          18.65
    0.1595              -44.84          18.09          72.92          61.78        -0.1829         -12.54         -38.85         -4.329          110.9          133.1          18.65
    0.1772              -44.85          18.09           72.9          61.78        -0.1813         -12.53         -38.81         -4.312          110.9          133.1          18.66
     0.195              -44.85          18.08          72.88          61.78        -0.1796         -12.52         -38.78         -4.294          110.8          133.0          18.67
    0.2127              -44.86          18.08          72.87          61.78        -0.1778         -12.51         -38.74         -4.275          110.8          133.0          18.68
    0.2304              -44.86          18.07          72.84          61.78        -0.1758         -12.51         -38.69         -4.254          110.7          133.0           18.7
    0.2481              -44.87          18.07          72.82          61.78        -0.1737          -12.5         -38.65         -4.232          110.6          133.0          18.71
    0.2658              -44.87          18.06           72.8          61.78        -0.1714         -12.49         -38.59         -4.207          110.6          133.0          18.72
    0.2836              -44.88          18.06          72.77          61.78        -0.1689         -12.47         -38.54         -4.181          110.5          132.9          18.74
    0.3013              -44.88          18.05          72.74          61.78        -0.1661         -12.46         -38.48         -4.152          110.4          132.9          18.75
     0.319              -44.89          18.04          72.71          61.78        -0.1631         -12.45         -38.41          -4.12          110.3          132.9          18.77
    0.3367               -44.9          18.03          72.67          61.78        -0.1599         -12.43         -38.34         -4.086          110.2          132.8          18.79
    0.3545              -44.91          18.02          72.63          61.78        -0.1563         -12.42         -38.26         -4.048          110.1          132.8          18.81
